TITLE ""
FILE "1Q_t_1010-1019.mp3" MP3
  TRACK 01 AUDIO
    TITLE "1Q_t_1010-1019_01"
    INDEX 01 00:00:00
  TRACK 02 AUDIO
    TITLE "1Q_t_1010-1019_02"
    INDEX 01 00:01:06
  TRACK 03 AUDIO
    TITLE "1Q_t_1010-1019_03"
    INDEX 01 00:01:16
  TRACK 04 AUDIO
    TITLE "1Q_t_1010-1019_04"
    INDEX 01 00:02:46
  TRACK 05 AUDIO
    TITLE "1Q_t_1010-1019_05"
    INDEX 01 00:02:52
  TRACK 06 AUDIO
    TITLE "1Q_t_1010-1019_06"
    INDEX 01 00:06:58
  TRACK 07 AUDIO
    TITLE "1Q_t_1010-1019_07"
    INDEX 01 00:07:30
  TRACK 08 AUDIO
    TITLE "1Q_t_1010-1019_08"
    INDEX 01 00:08:67
  TRACK 09 AUDIO
    TITLE "1Q_t_1010-1019_09"
    INDEX 01 00:09:01
  TRACK 10 AUDIO
    TITLE "1Q_t_1010-1019_10"
    INDEX 01 00:12:13
  TRACK 11 AUDIO
    TITLE "1Q_t_1010-1019_11"
    INDEX 01 00:12:21
  TRACK 12 AUDIO
    TITLE "1Q_t_1010-1019_12"
    INDEX 01 00:17:73
  TRACK 13 AUDIO
    TITLE "1Q_t_1010-1019_13"
    INDEX 01 00:18:45
  TRACK 14 AUDIO
    TITLE "1Q_t_1010-1019_14"
    INDEX 01 00:19:57
  TRACK 15 AUDIO
    TITLE "1Q_t_1010-1019_15"
    INDEX 01 00:19:64
  TRACK 16 AUDIO
    TITLE "1Q_t_1010-1019_16"
    INDEX 01 00:21:28
  TRACK 17 AUDIO
    TITLE "1Q_t_1010-1019_17"
    INDEX 01 00:21:36
  TRACK 18 AUDIO
    TITLE "1Q_t_1010-1019_18"
    INDEX 01 00:25:42
  TRACK 19 AUDIO
    TITLE "1Q_t_1010-1019_19"
    INDEX 01 00:26:14
  TRACK 20 AUDIO
    TITLE "1Q_t_1010-1019_20"
    INDEX 01 00:27:27
  TRACK 21 AUDIO
    TITLE "1Q_t_1010-1019_21"
    INDEX 01 00:27:37
  TRACK 22 AUDIO
    TITLE "1Q_t_1010-1019_22"
    INDEX 01 00:30:25
  TRACK 23 AUDIO
    TITLE "1Q_t_1010-1019_23"
    INDEX 01 00:30:31
  TRACK 24 AUDIO
    TITLE "1Q_t_1010-1019_24"
    INDEX 01 00:36:57
  TRACK 25 AUDIO
    TITLE "1Q_t_1010-1019_25"
    INDEX 01 00:37:27
  TRACK 26 AUDIO
    TITLE "1Q_t_1010-1019_26"
    INDEX 01 00:38:46
  TRACK 27 AUDIO
    TITLE "1Q_t_1010-1019_27"
    INDEX 01 00:38:54
  TRACK 28 AUDIO
    TITLE "1Q_t_1010-1019_28"
    INDEX 01 00:41:27
  TRACK 29 AUDIO
    TITLE "1Q_t_1010-1019_29"
    INDEX 01 00:41:33
  TRACK 30 AUDIO
    TITLE "1Q_t_1010-1019_30"
    INDEX 01 00:45:58
  TRACK 31 AUDIO
    TITLE "1Q_t_1010-1019_31"
    INDEX 01 00:46:28
  TRACK 32 AUDIO
    TITLE "1Q_t_1010-1019_32"
    INDEX 01 00:48:01
  TRACK 33 AUDIO
    TITLE "1Q_t_1010-1019_33"
    INDEX 01 00:48:09
  TRACK 34 AUDIO
    TITLE "1Q_t_1010-1019_34"
    INDEX 01 00:52:54
  TRACK 35 AUDIO
    TITLE "1Q_t_1010-1019_35"
    INDEX 01 00:52:60
  TRACK 36 AUDIO
    TITLE "1Q_t_1010-1019_36"
    INDEX 01 00:57:04
  TRACK 37 AUDIO
    TITLE "1Q_t_1010-1019_37"
    INDEX 01 00:57:49
  TRACK 38 AUDIO
    TITLE "1Q_t_1010-1019_38"
    INDEX 01 00:58:68
  TRACK 39 AUDIO
    TITLE "1Q_t_1010-1019_39"
    INDEX 01 00:59:03
  TRACK 40 AUDIO
    TITLE "1Q_t_1010-1019_40"
    INDEX 01 01:00:50
  TRACK 41 AUDIO
    TITLE "1Q_t_1010-1019_41"
    INDEX 01 01:00:56
  TRACK 42 AUDIO
    TITLE "1Q_t_1010-1019_42"
    INDEX 01 01:04:65
  TRACK 43 AUDIO
    TITLE "1Q_t_1010-1019_43"
    INDEX 01 01:05:37
  TRACK 44 AUDIO
    TITLE "1Q_t_1010-1019_44"
    INDEX 01 01:06:56
  TRACK 45 AUDIO
    TITLE "1Q_t_1010-1019_45"
    INDEX 01 01:06:64
  TRACK 46 AUDIO
    TITLE "1Q_t_1010-1019_46"
    INDEX 01 01:09:45
  TRACK 47 AUDIO
    TITLE "1Q_t_1010-1019_47"
    INDEX 01 01:09:55
  TRACK 48 AUDIO
    TITLE "1Q_t_1010-1019_48"
    INDEX 01 01:14:52
  TRACK 49 AUDIO
    TITLE "1Q_t_1010-1019_49"
    INDEX 01 01:15:24
  TRACK 50 AUDIO
    TITLE "1Q_t_1010-1019_50"
    INDEX 01 01:16:27
  TRACK 51 AUDIO
    TITLE "1Q_t_1010-1019_51"
    INDEX 01 01:16:37
  TRACK 52 AUDIO
    TITLE "1Q_t_1010-1019_52"
    INDEX 01 01:17:72
  TRACK 53 AUDIO
    TITLE "1Q_t_1010-1019_53"
    INDEX 01 01:18:06
  TRACK 54 AUDIO
    TITLE "1Q_t_1010-1019_54"
    INDEX 01 01:23:17
  TRACK 55 AUDIO
    TITLE "1Q_t_1010-1019_55"
    INDEX 01 01:23:64
  TRACK 56 AUDIO
    TITLE "1Q_t_1010-1019_56"
    INDEX 01 01:24:66
  TRACK 57 AUDIO
    TITLE "1Q_t_1010-1019_57"
    INDEX 01 01:25:01
  TRACK 58 AUDIO
    TITLE "1Q_t_1010-1019_58"
    INDEX 01 01:28:26
  TRACK 59 AUDIO
    TITLE "1Q_t_1010-1019_59"
    INDEX 01 01:28:34
  TRACK 60 AUDIO
    TITLE "1Q_t_1010-1019_60"
    INDEX 01 01:34:27
